<?xml version="1.0" encoding="iso-8859-1"?>
<!-- Generator: Adobe Illustrator 18.1.1, SVG Export Plug-In . SVG Version: 6.00 Build 0)  -->
<svg version="1.1" id="Capa_1" xmlns="http://www.w3.org/2000/svg" xmlns:xlink="http://www.w3.org/1999/xlink" x="0px" y="0px"
	 viewBox="0 0 45.374 45.374" style="enable-background:new 0 0 45.374 45.374;" xml:space="preserve">
<g>
	<g>
		<path style="fill:#010002;" d="M41.651,19.873c-0.555-1.781-1.417-3.494-2.722-4.844c-1.156-1.197-2.663-1.986-4.28-2.348
			c-1.892-0.424-3.87-0.263-5.754,0.116c-1.229,0.247-2.413,0.674-3.651,0.875c-1.459,0.236-2.968,0.204-4.432,0.042
			c-1.369-0.152-2.667-0.56-4.006-0.856c-1.048-0.232-2.12-0.373-3.193-0.401c-1.84-0.048-3.692,0.33-5.299,1.247
			c-3.549,2.026-5.239,6.493-5.509,10.379c-0.273,3.933,0.957,7.884,2.851,11.291c1.96,3.526,4.786,6.619,8.179,8.808
			c0.001,0.001,0.001,0.002,0.002,0.003c1.004,0.627,2.334,0.766,3.48,0.912c1.801,0.23,3.626,0.286,5.44,0.275
			c1.929-0.01,3.859-0.115,5.773-0.349c1.477-0.18,3.004-0.401,4.393-0.96c0.716-0.287,1.305-0.74,1.908-1.217
			c0.961-0.758,1.838-1.621,2.637-2.549c1.58-1.835,2.797-3.951,3.674-6.203C42.894,29.593,43.087,24.486,41.651,19.873z
			 M34.834,41.813c-0.64,0.556-1.316,1.127-2.098,1.472c-0.586,0.258-1.229,0.41-1.85,0.547c-1.735,0.387-3.52,0.55-5.291,0.654
			c-2.292,0.133-4.6,0.133-6.89-0.047c-0.92-0.072-1.839-0.178-2.743-0.363c-0.586-0.121-1.209-0.262-1.721-0.582
			C6.497,38.5,0.887,27.777,4.959,18.801c0.784-1.728,1.953-3.285,3.578-4.298c1.59-0.99,3.471-1.303,5.319-1.238
			c2.493,0.087,4.833,1.036,7.305,1.287c1.43,0.145,2.872,0.104,4.293-0.108c1.24-0.185,2.426-0.62,3.652-0.875
			c1.876-0.39,3.857-0.505,5.727-0.02c1.623,0.421,3.01,1.363,4.069,2.655c1.267,1.545,1.951,3.514,2.392,5.436
			c0.557,2.421,0.656,4.942,0.324,7.403C40.959,33.938,38.571,38.567,34.834,41.813z"/>
		<path style="fill:#010002;" d="M23.162,11.853c1.978-0.377,3.702-1.27,5.168-2.649c2.447-2.302,4.114-5.434,5.615-8.393
			c0.007-0.014,0.006-0.026,0.011-0.04c0.078-0.136,0.081-0.307-0.073-0.445c-0.52-0.464-1.461-0.322-2.086-0.239
			c-1.226,0.163-2.408,0.529-3.545,1.011c-2.679,1.136-5.146,3.211-5.82,6.152c-0.328,1.432-0.172,2.927,0.238,4.324
			C22.735,11.796,22.945,11.895,23.162,11.853z M23.558,6.34c0.574-1.345,1.604-2.442,2.787-3.279
			c1.121-0.794,2.391-1.373,3.701-1.773c0.925-0.282,1.925-0.518,2.897-0.463c0.044,0.002,0.071,0.003,0.093,0.005
			c-1.406,2.753-2.969,5.572-5.201,7.739c-1.273,1.237-2.787,2.016-4.494,2.41C22.953,9.442,22.925,7.824,23.558,6.34z"/>
		<path style="fill:#010002;" d="M9.491,31.471c-1.875-3.914-2.418-8.438-0.247-12.356c0.242-0.437,0.52-0.854,0.813-1.259
			c0.033-0.046,0.015-0.088-0.019-0.115c-0.002-0.002-0.004-0.005-0.006-0.008c-0.005-0.003-0.01-0.005-0.017-0.008
			c-0.035-0.023-0.079-0.03-0.115,0.01c-1.534,1.69-2.8,3.64-3.36,5.874c-0.429,1.711-0.351,3.506,0.133,5.194
			c0.805,2.81,2.699,5.239,4.837,7.176c0.5,0.452,1.021,0.896,1.578,1.278l0.001,0.001l0,0c0.006,0.004,0.013,0.01,0.02,0.015
			c0.097,0.066,0.196-0.076,0.121-0.156C11.698,35.477,10.455,33.486,9.491,31.471z M9.281,33.302
			c-2.198-2.809-3.421-6.33-2.489-9.871c0.428-1.623,1.27-3.097,2.296-4.419c-0.835,1.5-1.344,3.146-1.465,4.883
			c-0.138,1.994,0.264,3.998,0.936,5.868c0.888,2.471,2.292,4.796,3.972,6.823C11.315,35.641,10.218,34.499,9.281,33.302z"/>
	</g>
</g>
<g>
</g>
<g>
</g>
<g>
</g>
<g>
</g>
<g>
</g>
<g>
</g>
<g>
</g>
<g>
</g>
<g>
</g>
<g>
</g>
<g>
</g>
<g>
</g>
<g>
</g>
<g>
</g>
<g>
</g>
</svg>
